<svg xmlns="http://www.w3.org/2000/svg" version="1.1" xmlns:xlink="http://www.w3.org/1999/xlink" xmlns:svgjs="http://svgjs.com/svgjs" width="1440" height="560" preserveAspectRatio="none" viewBox="0 0 1440 560"><g mask="url(&quot;#SvgjsMask1049&quot;)" fill="none"><rect width="1440" height="560" x="0" y="0" fill="rgba(39, 47, 55, 1)"></rect><path d="M272.797,51.731C290.352,52.258,308.533,47.367,318.095,32.635C328.461,16.663,329.546,-4.299,319.764,-20.635C310.215,-36.583,291.385,-43.113,272.797,-43.015C254.407,-42.918,235.651,-36.196,226.682,-20.142C217.888,-4.401,222.239,14.874,231.976,30.05C240.893,43.948,256.291,51.235,272.797,51.731" fill="rgba(53, 61, 69, 0.51)" class="triangle-float1"></path><path d="M1268.824,328.697C1308.629,328.96,1347.393,311.108,1367.349,276.665C1387.353,242.138,1383.949,199.389,1363.647,165.036C1343.714,131.307,1307.919,107.383,1268.824,109.95C1233.023,112.301,1211.416,145.209,1193.367,176.216C1175.156,207.502,1156.474,242.932,1172.53,275.377C1189.971,310.622,1229.501,328.437,1268.824,328.697" fill="rgba(53, 61, 69, 0.51)" class="triangle-float3"></path><path d="M382.087,576.842C409.029,575.763,424.827,549.574,437.813,525.943C450.142,503.508,461.499,477.479,448.956,455.163C436.241,432.541,408.026,426.057,382.087,426.798C357.625,427.497,334.362,437.968,321.526,458.804C308.031,480.71,306.312,507.845,318.057,530.737C330.925,555.818,353.921,577.97,382.087,576.842" fill="rgba(53, 61, 69, 0.51)" class="triangle-float2"></path><path d="M45.01,499.544C86.51,500.982,122.244,471.903,141.883,435.316C160.46,400.708,157.826,359.606,138.474,325.425C118.808,290.691,84.893,265.819,45.01,264.216C2.22,262.496,-42.64,279.377,-62.438,317.351C-81.216,353.368,-61.528,393.996,-40.894,428.983C-20.719,463.193,5.318,498.169,45.01,499.544" fill="rgba(53, 61, 69, 0.51)" class="triangle-float1"></path><path d="M923.828,276.991C977.395,277.43,1030.902,256.863,1058.421,210.903C1086.631,163.788,1084.498,103.806,1055.415,57.224C1027.901,13.155,975.78,-5.048,923.828,-4.676C872.623,-4.309,822.228,15.43,795.465,59.085C767.519,104.671,765.861,162.658,793,208.729C819.758,254.153,871.11,276.559,923.828,276.991" fill="rgba(53, 61, 69, 0.51)" class="triangle-float3"></path><path d="M63.858,89.916C81.399,90.912,100.261,87.835,110.145,73.31C121.162,57.12,121.961,35.65,112.428,18.544C102.652,1.002,83.934,-10.249,63.858,-9.75C44.55,-9.27,27.729,3.482,19.295,20.857C11.788,36.321,16.541,54.079,25.862,68.523C34.308,81.612,48.305,89.033,63.858,89.916" fill="rgba(53, 61, 69, 0.51)" class="triangle-float1"></path><path d="M1401.714,272.665C1452.282,272.391,1489.138,230.764,1514.331,186.917C1539.406,143.274,1556.225,90.81,1531.337,47.06C1506.243,2.948,1452.413,-13.33,1401.714,-11.049C1355.117,-8.952,1314.118,17.465,1290.835,57.882C1267.593,98.227,1265.603,146.778,1286.961,188.151C1310.317,233.394,1350.799,272.941,1401.714,272.665" fill="rgba(53, 61, 69, 0.51)" class="triangle-float1"></path><path d="M518.113,693.72C562.149,693.098,608.63,684.619,632.412,647.552C657.874,607.866,657.769,555.325,632.411,515.572C608.652,478.325,562.278,467.199,518.113,468.366C476.336,469.47,436.787,486.432,413.822,521.349C388.209,560.292,373.954,610.981,398.083,650.861C421.654,689.819,472.584,694.363,518.113,693.72" fill="rgba(53, 61, 69, 0.51)" class="triangle-float1"></path><path d="M146.761,450.754C188.923,448.502,220.789,416.668,241.205,379.71C260.825,344.193,269.746,301.016,248.615,266.377C228.153,232.834,186.003,222.905,146.761,224.891C111.264,226.688,81.415,246.537,61.325,275.856C37.416,310.749,14.495,352.821,33.061,390.827C53.215,432.085,100.908,453.203,146.761,450.754" fill="rgba(53, 61, 69, 0.51)" class="triangle-float3"></path><path d="M1150.097,544.665C1165.169,543.61,1174.938,529.892,1181.407,516.238C1186.852,504.745,1186.063,492.051,1180.423,480.652C1173.916,467.501,1164.766,453.31,1150.097,452.954C1135.059,452.589,1124.705,466.133,1117.108,479.115C1109.406,492.277,1103.288,507.606,1110.144,521.228C1117.584,536.011,1133.588,545.821,1150.097,544.665" fill="rgba(53, 61, 69, 0.51)" class="triangle-float2"></path><path d="M274.533,528.421C294.91,527.562,314.321,519.466,325.272,502.261C337.113,483.659,341.984,459.473,330.338,440.748C319.148,422.757,295.72,420.825,274.533,420.681C252.988,420.535,229.533,422.178,217.401,439.982C203.939,459.738,202.823,486.798,215.796,506.879C227.924,525.653,252.202,529.363,274.533,528.421" fill="rgba(53, 61, 69, 0.51)" class="triangle-float3"></path><path d="M261.365,305.245C276.848,305.103,290.16,294.852,297.398,281.164C304.174,268.35,302.611,253.282,295.531,240.634C288.261,227.645,276.236,217.424,261.365,216.787C245.405,216.103,229.65,223.603,221.72,237.471C213.841,251.25,216.158,268.132,224.172,281.833C232.1,295.386,245.665,305.389,261.365,305.245" fill="rgba(53, 61, 69, 0.51)" class="triangle-float3"></path><path d="M1208.958,416.957C1230.259,417.045,1252.797,411.627,1263.699,393.327C1274.804,374.685,1270.329,351.34,1259.114,332.764C1248.312,314.872,1229.848,302.013,1208.958,302.654C1188.997,303.267,1174.118,318.551,1163.867,335.689C1153.254,353.433,1144.964,374.797,1154.995,392.877C1165.237,411.337,1187.847,416.87,1208.958,416.957" fill="rgba(53, 61, 69, 0.51)" class="triangle-float3"></path><path d="M1106.728,509.579C1137.919,510.001,1165.951,492.281,1182.182,465.642C1199.154,437.787,1203.814,403.641,1188.972,374.595C1172.74,342.83,1142.386,318.975,1106.728,317.981C1069.46,316.942,1032.655,336.353,1016.136,369.775C1000.987,400.425,1016.139,434.954,1034.731,463.646C1051.323,489.251,1076.22,509.166,1106.728,509.579" fill="rgba(53, 61, 69, 0.51)" class="triangle-float2"></path><path d="M561.838,284.813C615.144,286.441,663.12,256.058,691.55,210.937C722.197,162.297,738.777,100.266,709.164,50.989C680.166,2.736,618.133,-4.517,561.838,-4.909C504.594,-5.307,438.89,-1.031,410.917,48.914C383.29,98.24,414.694,155.787,445.162,203.411C472.553,246.226,511.035,283.261,561.838,284.813" fill="rgba(53, 61, 69, 0.51)" class="triangle-float3"></path><path d="M1153.842,298.705C1183.28,296.99,1207.658,277.955,1222.039,252.212C1236.03,227.168,1238.565,197.045,1224.65,171.959C1210.322,146.128,1183.376,128.725,1153.842,129.267C1125.135,129.794,1102.769,150.226,1087.401,174.479C1070.527,201.108,1055.467,233.253,1070.335,261.052C1085.77,289.911,1121.17,300.609,1153.842,298.705" fill="rgba(53, 61, 69, 0.51)" class="triangle-float2"></path><path d="M1255.005,675.068C1304.477,677.917,1353.062,653.822,1378.037,611.022C1403.196,567.907,1398.814,514.602,1373.877,471.358C1348.916,428.071,1304.972,397.293,1255.005,397.663C1205.613,398.029,1161.317,428.961,1139.144,473.097C1118.943,513.307,1131.901,559.102,1154.292,598.135C1176.822,637.41,1209.802,672.465,1255.005,675.068" fill="rgba(53, 61, 69, 0.51)" class="triangle-float2"></path><path d="M339.995,571.433C384.353,571.374,413.473,531.076,436.259,493.018C459.948,453.451,483.172,407.927,462.599,366.654C440.349,322.017,389.854,298.622,339.995,299.895C292.23,301.114,249.143,329.913,227.772,372.648C208.338,411.51,221.928,455.436,243.289,493.273C265.128,531.957,295.572,571.492,339.995,571.433" fill="rgba(53, 61, 69, 0.51)" class="triangle-float2"></path><path d="M1093.972,556.141C1132.61,554.736,1170.762,540.671,1190.654,507.516C1211.088,473.457,1207.495,431.926,1189.844,396.345C1169.635,355.608,1139.436,313.594,1093.972,312.622C1047.437,311.627,1012.904,351.164,990.728,392.088C969.775,430.755,960.871,477.797,984.296,515.018C1006.585,550.435,1052.153,557.661,1093.972,556.141" fill="rgba(53, 61, 69, 0.51)" class="triangle-float3"></path><path d="M749.968,405.375C797.414,402.44,825.334,358.088,849.649,317.24C874.815,274.963,904.357,227.28,882.098,183.403C858.462,136.811,802.16,118.413,749.968,120.748C701.793,122.903,661.274,152.8,636.839,194.374C612.023,236.595,603.219,287.891,626.36,331.053C650.708,376.467,698.537,408.557,749.968,405.375" fill="rgba(53, 61, 69, 0.51)" class="triangle-float1"></path></g><defs><mask id="SvgjsMask1049"><rect width="1440" height="560" fill="#ffffff"></rect></mask><style>
            @keyframes float1 {
                0%{transform: translate(0, 0)}
                50%{transform: translate(-10px, 0)}
                100%{transform: translate(0, 0)}
            }

            .triangle-float1 {
                animation: float1 5s infinite;
            }

            @keyframes float2 {
                0%{transform: translate(0, 0)}
                50%{transform: translate(-5px, -5px)}
                100%{transform: translate(0, 0)}
            }

            .triangle-float2 {
                animation: float2 4s infinite;
            }

            @keyframes float3 {
                0%{transform: translate(0, 0)}
                50%{transform: translate(0, -10px)}
                100%{transform: translate(0, 0)}
            }

            .triangle-float3 {
                animation: float3 6s infinite;
            }
        </style></defs></svg>